<?xml version="1.0" encoding="utf-8"?>
<!-- Generator: Adobe Illustrator 28.0.0, SVG Export Plug-In . SVG Version: 6.00 Build 0)  -->
<svg version="1.1" id="Layer_1" xmlns="http://www.w3.org/2000/svg" xmlns:xlink="http://www.w3.org/1999/xlink" x="0px" y="0px"
	 viewBox="0 0 800 800" style="enable-background:new 0 0 800 800;" xml:space="preserve">
<style type="text/css">
	.st0{fill:#FDDDA5;}
</style>
<path class="st0" d="M400,60C212.2,60,60,212.2,60,400s152.2,340,340,340s340-152.2,340-340c0.2-187.6-151.8-339.8-339.4-340
	C400.4,60,400.2,60,400,60z M400,690c-160.2,0-290-129.8-290-290s129.8-290,290-290s290,129.8,290,290
	c0.3,159.8-129,289.7-288.8,290C400.8,690,400.4,690,400,690z M455.2,250.3c-13-13.6-34.6-14.1-48.2-1.2c-0.4,0.4-0.8,0.8-1.2,1.2
	L305.4,350.7c-27.7,27.1-28.3,71.5-1.2,99.3c0.4,0.4,0.8,0.8,1.2,1.2l100.4,100.4c13.8,13.5,35.9,13.3,49.3-0.5
	c13.3-13.6,13.3-35.3,0-48.8l-98.7-102.2L457,299.6C469.3,287.3,469.3,264.4,455.2,250.3z"/>
</svg>
