<?xml version="1.0" encoding="utf-8"?>
<!-- Generator: Adobe Illustrator 28.0.0, SVG Export Plug-In . SVG Version: 6.00 Build 0)  -->
<svg version="1.1" id="Layer_1" xmlns="http://www.w3.org/2000/svg" xmlns:xlink="http://www.w3.org/1999/xlink" x="0px" y="0px"
	 viewBox="0 0 800 800" style="enable-background:new 0 0 800 800;" xml:space="preserve">
<style type="text/css">
	.st0{fill:none;stroke:#FDDDA5;stroke-width:50;stroke-miterlimit:133.3333;}
	.st1{fill:none;stroke:#FDDDA5;stroke-width:50;stroke-linecap:round;stroke-miterlimit:133.3333;}
</style>
<path class="st0" d="M66.7,406.8c0-76.3,0-114.4,17.3-146c17.3-31.6,48.9-51.2,112.2-90.5l66.7-41.4C329.6,87.4,363.1,66.7,400,66.7
	s70.4,20.7,137.2,62.2l66.7,41.4c63.2,39.2,94.9,58.9,112.2,90.5c17.3,31.6,17.3,69.8,17.3,146v50.7c0,130,0,195-39.1,235.4
	c-39,40.4-101.9,40.4-227.6,40.4H333.3c-125.7,0-188.6,0-227.6-40.4c-39.1-40.4-39.1-105.4-39.1-235.4V406.8z"/>
<path class="st1" d="M300,533.3c28.3,21,62.8,33.3,100,33.3s71.7-12.3,100-33.3"/>
</svg>
